# xmcd
#
# Track frame offsets:
#	150
#	11565
#	24885
#	38745
#	52947
#	67567
#	78325
#	92287
#	106365
#	119452
#	133542
#	145952
#	158035
#	172825
#	184715
#	197500
#	211240
#	225985
#	239182
#	253647
#	265502
#	276850
#	289420
#	302650
#	316725
#	328850
#	341482
#
# Disc length: 4721 seconds
#
# Revision: 1
# Processed by: cddbd v1.4PL0 Copyright (c) Steve Scherf et al.
# Submitted via: audiograbber 1.80
#
DISCID=64126f1b
DTITLE=jimmie davis - you are my sunshine disc 1
DYEAR=1900
DGENRE=
TTITLE0=all alone in this world 1938
TTITLE1=goodbye old booze 1938
TTITLE2=you're as welcome as the flowers in may 1940
TTITLE3=i saw your face in the moon 1938
TTITLE4=i love everything you do 1938
TTITLE5=hard hearted mama 1938
TTITLE6=there's a gold mine in the sky 1938
TTITLE7=nobody's lonesome for me 1998
TTITLE8=meed me tonight in dreamland 1938
TTITLE9=there's a ranch in the rockies 1938
TTITLE10=headin' home 1938
TTITLE11=farewell to the range 1938
TTITLE12=i'm drifting back to dreamland 1938
TTITLE13=memories 1939
TTITLE14=i'm waiting for ships that never come in 1940
TTITLE15=it makes no difference now 1938
TTITLE16=the curse of an aching heart 1938
TTITLE17=you tell me your dream i'll tell you mine 1938
TTITLE18=don't break her heart boy 1938 
TTITLE19=i've tried so hard to forget you 1939
TTITLE20=what good will it do 1939
TTITLE21=the same old moon is shining 1939
TTITLE22=i'm wondering now 1939
TTITLE23=dream of love (liebestraum) 1939
TTITLE24=if tomorrow never comes 1939 
TTITLE25=when you know you're not forgotten by the girl you can't forget 1998
TTITLE26=some must win-some lose 1939
EXTD=
EXTT0=
EXTT1=
EXTT2=
EXTT3=
EXTT4=
EXTT5=
EXTT6=
EXTT7=
EXTT8=
EXTT9=
EXTT10=
EXTT11=
EXTT12=
EXTT13=
EXTT14=
EXTT15=
EXTT16=
EXTT17=
EXTT18=
EXTT19=
EXTT20=
EXTT21=
EXTT22=
EXTT23=
EXTT24=
EXTT25=
EXTT26=
PLAYORDER=
